<svg width="25" height="24" viewBox="0 0 25 24" fill="none" xmlns="http://www.w3.org/2000/svg">
<path d="M17.2228 14.0602C16.9673 13.9289 15.6946 13.3055 15.4579 13.2211C15.2212 13.132 15.0478 13.0898 14.8767 13.3523C14.7032 13.6125 14.211 14.1914 14.0563 14.3672C13.9063 14.5406 13.754 14.5617 13.4985 14.4328C11.9798 13.6734 10.9837 13.0781 9.98291 11.3602C9.71807 10.9031 10.2478 10.9359 10.7423 9.94922C10.8267 9.77578 10.7845 9.62813 10.7188 9.49688C10.6532 9.36563 10.1376 8.09531 9.92197 7.57734C9.71338 7.07344 9.49775 7.14375 9.34072 7.13437C9.19072 7.125 9.01963 7.125 8.84619 7.125C8.67275 7.125 8.39385 7.19063 8.15713 7.44609C7.92041 7.70625 7.25244 8.33203 7.25244 9.60234C7.25244 10.8727 8.17822 12.1031 8.30478 12.2766C8.43603 12.45 10.1259 15.0563 12.7204 16.1789C14.361 16.8867 15.0032 16.9477 15.8235 16.8258C16.3228 16.7508 17.3517 16.2023 17.5649 15.5953C17.7782 14.9906 17.7782 14.4727 17.7149 14.3648C17.6517 14.25 17.4782 14.1844 17.2228 14.0602Z" fill="white"/>
<path d="M22.1843 7.93125C21.6546 6.67266 20.8952 5.54297 19.9272 4.57266C18.9593 3.60469 17.8296 2.84297 16.5686 2.31563C15.2796 1.77422 13.9108 1.5 12.4999 1.5H12.453C11.0327 1.50703 9.65692 1.78828 8.36317 2.34141C7.11395 2.87578 5.99364 3.63516 5.03505 4.60312C4.07645 5.57109 3.32411 6.69609 2.8038 7.95C2.26473 9.24844 1.99286 10.6289 1.99989 12.0492C2.00692 13.6758 2.39598 15.2906 3.12489 16.7344V20.2969C3.12489 20.8922 3.6077 21.375 4.20301 21.375H7.76786C9.21161 22.1039 10.8265 22.493 12.453 22.5H12.5022C13.9061 22.5 15.2679 22.2281 16.5499 21.6961C17.8038 21.1734 18.9311 20.4234 19.8968 19.4648C20.8647 18.5063 21.6265 17.3859 22.1585 16.1367C22.7116 14.843 22.9929 13.4672 22.9999 12.0469C23.0069 10.6195 22.7304 9.23438 22.1843 7.93125ZM18.6429 18.1969C16.9999 19.8234 14.8202 20.7188 12.4999 20.7188H12.46C11.0468 20.7117 9.64286 20.3602 8.40301 19.6992L8.20614 19.5938H4.90614V16.2938L4.80067 16.0969C4.13973 14.857 3.78817 13.4531 3.78114 12.0398C3.77176 9.70312 4.66473 7.50937 6.30301 5.85703C7.93895 4.20469 10.1257 3.29062 12.4624 3.28125H12.5022C13.6741 3.28125 14.8108 3.50859 15.8819 3.95859C16.9272 4.39687 17.8647 5.02734 18.671 5.83359C19.4749 6.6375 20.1077 7.57734 20.546 8.62266C21.0007 9.70547 21.228 10.8539 21.2233 12.0398C21.2093 14.3742 20.2929 16.5609 18.6429 18.1969Z" fill="white"/>
</svg>
