<?xml version="1.0" ?><svg height="400px" version="1.1" viewBox="0 0 400 400" width="400px" xmlns="http://www.w3.org/2000/svg" xmlns:xlink="http://www.w3.org/1999/xlink"><title/><desc/><defs><path d="M90.5257675,159.313732 C129.734015,154.160636 160,120.614818 160,80 C160,35.81722 124.18278,-1.47792889e-12 80,-1.47792889e-12 C35.81722,-1.47792889e-12 1.47792889e-12,35.81722 1.47792889e-12,80 C1.47792889e-12,120.614842 30.2660208,154.160675 69.4743022,159.313741 C69.4465707,159.535248 69.4259571,159.75873 69.4127086,159.983954 L60.5872914,310.016046 C60.2623356,315.540294 64.4729022,320 69.9905068,320 L90.0094932,320 C95.5279241,320 99.7370607,315.530031 99.4127086,310.016046 L90.5872914,159.983954 C90.5740412,159.7587 90.5534511,159.535216 90.5257675,159.313732 L90.5257675,159.313732 L90.5257675,159.313732 Z M80,150 C118.659932,150 150,118.659932 150,80 C150,41.3400675 118.659932,10 80,10 C41.3400675,10 10,41.3400675 10,80 C10,118.659932 41.3400675,150 80,150 L80,150 L80,150 Z M80,310 C85.5228475,310 90,305.522847 90,300 C90,294.477153 85.5228475,290 80,290 C74.4771525,290 70,294.477153 70,300 C70,305.522847 74.4771525,310 80,310 L80,310 L80,310 Z" id="path-1"/><filter filterUnits="objectBoundingBox" height="200%" id="filter-2" width="200%" x="-50%" y="-50%"><feOffset dx="0" dy="4" in="SourceAlpha" result="shadowOffsetOuter1"/><feGaussianBlur in="shadowOffsetOuter1" result="shadowBlurOuter1" stdDeviation="2"/><feColorMatrix in="shadowBlurOuter1" type="matrix" values="0 0 0 0 0   0 0 0 0 0   0 0 0 0 0  0 0 0 0.5 0"/></filter><path d="M129.999999,80.0123002 C133.132927,80 136.462161,80 140,80 C140,113.137085 113.137085,140 80,140 C80,136.462161 80,133.132927 80.0123002,129.999999 C107.616785,129.993353 129.993353,107.616785 129.999999,80.0123002 L129.999999,80.0123002 Z" id="path-3"/><filter filterUnits="objectBoundingBox" height="200%" id="filter-4" width="200%" x="-50%" y="-50%"><feOffset dx="0" dy="4" in="SourceAlpha" result="shadowOffsetOuter1"/><feGaussianBlur in="shadowOffsetOuter1" result="shadowBlurOuter1" stdDeviation="2"/><feColorMatrix in="shadowBlurOuter1" type="matrix" values="0 0 0 0 0   0 0 0 0 0   0 0 0 0 0  0 0 0 0.5 0"/></filter></defs><g fill="none" fill-rule="evenodd" id="Page-1" stroke="none" stroke-width="1"><g id="magnifier"><path d="M200,400 C310.45695,400 400,310.45695 400,200 C400,89.54305 310.45695,0 200,0 C89.54305,0 0,89.54305 0,200 C0,310.45695 89.54305,400 200,400 Z" fill="#7705f969" id="Background-Copy-2"/><g id="Group-2" transform="translate(200.000000, 200.000000) rotate(-315.000000) translate(-200.000000, -200.000000) translate(120.000000, 40.000000)"><g id="Combined-Shape"><use fill="black" fill-opacity="1" filter="url(#filter-2)" xlink:href="#path-1"/><use fill="#fedf4c" fill-rule="evenodd" xlink:href="#path-1"/></g><g id="Combined-Shape"><use fill="black" fill-opacity="1" filter="url(#filter-4)" xlink:href="#path-3"/><use fill="#697F9B" fill-rule="evenodd" xlink:href="#path-3"/></g></g></g></g></svg>