<svg xmlns="http://www.w3.org/2000/svg" version="1.1" xmlns:xlink="http://www.w3.org/1999/xlink" xmlns:svgjs="http://svgjs.dev/svgjs" width="1440" height="560" preserveAspectRatio="none" viewBox="0 0 1440 560"><g mask="url(&quot;#SvgjsMask1004&quot;)" fill="none"><rect width="1440" height="560" x="0" y="0" fill="rgba(221, 221, 209, 1)"></rect><path d="M637.27 403.85L669.09 403.85L669.09 435.67L637.27 435.67z" stroke="rgba(255, 255, 255, 1)"></path><path d="M747.98 154.4L801.65 154.4L801.65 208.07L747.98 208.07z" stroke="rgba(255, 255, 255, 1)"></path><path d="M243.02 69.55a10.13 10.13 0 1 0 4.91-19.65z" fill="rgba(255, 255, 255, 1)"></path><path d="M514.34 550.31a17.56 17.56 0 1 0-21.33-27.89z" stroke="rgba(255, 255, 255, 1)"></path><path d="M380.76 482.24L384.57 482.24L384.57 486.05L380.76 486.05z" fill="rgba(255, 255, 255, 1)"></path><path d="M194.98 445.11L204.21 445.11L204.21 484.78L194.98 484.78z" fill="rgba(255, 255, 255, 1)"></path><path d="M651.2 100.3L706.37 100.3L706.37 112.44L651.2 112.44z" stroke="rgba(255, 255, 255, 1)"></path><path d="M1280.84 440.82 a48.04 48.04 0 1 0 96.08 0 a48.04 48.04 0 1 0 -96.08 0z" stroke="rgba(255, 255, 255, 1)"></path><path d="M21.06 497.68 a27.44 27.44 0 1 0 54.88 0 a27.44 27.44 0 1 0 -54.88 0z" stroke="rgba(255, 255, 255, 1)"></path><path d="M240.68 39.89 a23.11 23.11 0 1 0 46.22 0 a23.11 23.11 0 1 0 -46.22 0z" fill="rgba(255, 255, 255, 1)"></path><path d="M1095.56 353.48L1139.48 353.48L1139.48 397.4L1095.56 397.4z" fill="rgba(255, 255, 255, 1)"></path><path d="M1307.88 422.31 a51.94 51.94 0 1 0 103.88 0 a51.94 51.94 0 1 0 -103.88 0z" stroke="rgba(255, 255, 255, 1)"></path><path d="M138.27 408.28a11.36 11.36 0 1 0 5.42-22.07z" fill="rgba(255, 255, 255, 1)"></path><path d="M572.89 383.73L612.27 383.73L612.27 386.9L572.89 386.9z" fill="rgba(255, 255, 255, 1)"></path><path d="M801.54 383.24L833.74 383.24L833.74 383.4L801.54 383.4z" stroke="rgba(255, 255, 255, 1)"></path><path d="M861.89 54.92a9.42 9.42 0 1 0 18.26-4.64z" fill="rgba(255, 255, 255, 1)"></path><path d="M675.46 254.24 a28.84 28.84 0 1 0 57.68 0 a28.84 28.84 0 1 0 -57.68 0z" fill="rgba(255, 255, 255, 1)"></path><path d="M354.27 209.49L397.66 209.49L397.66 249.55L354.27 249.55z" stroke="rgba(255, 255, 255, 1)"></path><path d="M205.16 554.82L211.43 554.82L211.43 582.71L205.16 582.71z" fill="rgba(255, 255, 255, 1)"></path><path d="M1410.8 19.64L1439.08 19.64L1439.08 31.13L1410.8 31.13z" fill="rgba(255, 255, 255, 1)"></path><path d="M154.67 366.96a12.99 12.99 0 1 0-5.63 25.37z" fill="rgba(255, 255, 255, 1)"></path><path d="M215.16 364.55 a4.7 4.7 0 1 0 9.4 0 a4.7 4.7 0 1 0 -9.4 0z" stroke="rgba(255, 255, 255, 1)"></path><path d="M454.89 26.86L480.39 26.86L480.39 41.47L454.89 41.47z" fill="rgba(255, 255, 255, 1)"></path><path d="M787.04 415.88L837.41 415.88L837.41 466.25L787.04 466.25z" fill="rgba(255, 255, 255, 1)"></path><path d="M959.72 125.69L1015.33 125.69L1015.33 181.3L959.72 181.3z" stroke="rgba(255, 255, 255, 1)"></path><path d="M287.87 114.99L303.03 114.99L303.03 130.15L287.87 130.15z" stroke="rgba(255, 255, 255, 1)"></path><path d="M693.04 187.25L703.16 187.25L703.16 197.37L693.04 197.37z" fill="rgba(255, 255, 255, 1)"></path><path d="M-24.24 89.02 a25.89 25.89 0 1 0 51.78 0 a25.89 25.89 0 1 0 -51.78 0z" stroke="rgba(255, 255, 255, 1)"></path><path d="M153.17 35.06 a1.67 1.67 0 1 0 3.34 0 a1.67 1.67 0 1 0 -3.34 0z" fill="rgba(255, 255, 255, 1)"></path><path d="M679.73 128.49a1.21 1.21 0 1 0-0.99-2.21z" fill="rgba(255, 255, 255, 1)"></path><path d="M-2.41 143.77 a28.62 28.62 0 1 0 57.24 0 a28.62 28.62 0 1 0 -57.24 0z" fill="rgba(255, 255, 255, 1)"></path><path d="M136.53 38 a46.28 46.28 0 1 0 92.56 0 a46.28 46.28 0 1 0 -92.56 0z" stroke="rgba(255, 255, 255, 1)"></path><path d="M909.6 404.85a0.05 0.05 0 1 0-0.09-0.05z" fill="rgba(255, 255, 255, 1)"></path></g><defs><mask id="SvgjsMask1004"><rect width="1440" height="560" fill="#ffffff"></rect></mask></defs></svg>