<?xml version="1.0" ?><svg height="400px" version="1.1" viewBox="0 0 400 400" width="400px" xmlns="http://www.w3.org/2000/svg" xmlns:xlink="http://www.w3.org/1999/xlink"><title/><desc/><defs><path d="M262.316406,135.183594 L207.082031,135.183594 L207.082031,126.023438 C207.082031,116.270785 206.444017,109.89064 205.167969,106.882812 C203.891921,103.874985 201.157573,102.371094 196.964844,102.371094 C193.592431,102.371094 191.063159,103.669909 189.376953,106.267578 C187.690747,108.865247 186.847656,112.761693 186.847656,117.957031 C186.847656,126.615929 188.57941,132.677066 192.042969,136.140625 C195.415381,139.604184 205.350178,146.348908 221.847656,156.375 C235.884185,164.851605 245.454402,171.345681 250.558594,175.857422 C255.662786,180.369163 259.969383,186.749308 263.478516,194.998047 C266.987648,203.246786 268.742188,213.523376 268.742188,225.828125 C268.742188,245.515723 264.002652,260.964788 254.523438,272.175781 C245.044223,283.386775 230.825616,290.313789 211.867188,292.957031 L211.867188,313.738281 L186.4375,313.738281 L186.4375,292.273438 C171.671801,290.815097 158.774795,285.141325 147.746094,275.251953 C136.717393,265.362581 131.203125,248.113404 131.203125,223.503906 L131.203125,212.703125 L186.4375,212.703125 L186.4375,226.238281 C186.4375,241.095126 187.007156,250.32355 188.146484,253.923828 C189.285813,257.524107 192.042947,259.324219 196.417969,259.324219 C200.154967,259.324219 202.934887,258.070976 204.757812,255.564453 C206.580738,253.05793 207.492188,249.343775 207.492188,244.421875 C207.492188,232.02598 206.626311,223.162136 204.894531,217.830078 C203.162752,212.49802 197.238332,206.687531 187.121094,200.398438 C170.25903,189.825468 158.797556,182.055363 152.736328,177.087891 C146.6751,172.120418 141.434267,165.125045 137.013672,156.101562 C132.593077,147.07808 130.382812,136.869849 130.382812,125.476562 C130.382812,108.979084 135.05399,96.0365053 144.396484,86.6484375 C153.738979,77.2603697 167.752511,71.4726672 186.4375,69.2851562 L186.4375,51.6484375 L211.867188,51.6484375 L211.867188,69.2851562 C228.911544,71.4726672 241.671833,77.192011 250.148438,86.4433594 C258.625042,95.6947077 262.863281,108.477783 262.863281,124.792969 C262.863281,127.071626 262.680991,130.535133 262.316406,135.183594 L262.316406,135.183594 Z" id="path-1"/><filter filterUnits="objectBoundingBox" height="200%" id="filter-2" width="200%" x="-50%" y="-50%"><feOffset dx="0" dy="4" in="SourceAlpha" result="shadowOffsetOuter1"/><feGaussianBlur in="shadowOffsetOuter1" result="shadowBlurOuter1" stdDeviation="2"/><feColorMatrix in="shadowBlurOuter1" type="matrix" values="0 0 0 0 0   0 0 0 0 0   0 0 0 0 0  0 0 0 0.5 0"/></filter><ellipse cx="200" cy="337" id="path-3" rx="90" ry="13"/><filter filterUnits="objectBoundingBox" height="200%" id="filter-4" width="200%" x="-50%" y="-50%"><feOffset dx="0" dy="4" in="SourceAlpha" result="shadowOffsetOuter1"/><feGaussianBlur in="shadowOffsetOuter1" result="shadowBlurOuter1" stdDeviation="2"/><feColorMatrix in="shadowBlurOuter1" type="matrix" values="0 0 0 0 0   0 0 0 0 0   0 0 0 0 0  0 0 0 0.5 0"/></filter></defs><g fill="none" fill-rule="evenodd" id="Page-1" stroke="none" stroke-width="1"><g id="dollar"><path d="M200,400 C310.45695,400 400,310.45695 400,200 C400,89.54305 310.45695,0 200,0 C89.54305,0 0,89.54305 0,200 C0,310.45695 89.54305,400 200,400 Z" fill="#7705f969" id="Oval-6"/><g id="Combined-Shape"><use fill="black" fill-opacity="1" filter="url(#filter-2)" xlink:href="#path-1"/><use fill="#FBF0B8" fill-rule="evenodd" xlink:href="#path-1"/></g><g id="Oval-49"><use fill="black" fill-opacity="1" filter="url(#filter-4)" xlink:href="#path-3"/><use fill="#67ADD5" fill-rule="evenodd" xlink:href="#path-3"/></g></g></g></svg>