<?xml version="1.0" ?><svg height="400px" version="1.1" viewBox="0 0 400 400" width="400px" xmlns="http://www.w3.org/2000/svg" xmlns:xlink="http://www.w3.org/1999/xlink"><title/><desc/><defs><path d="M8.00287799,1.70530257e-13 C3.58516013,1.70530257e-13 -2.27373675e-13,3.58174013 -2.27373675e-13,8.00004048 L-2.27373675e-13,21.9999595 C-2.27373675e-13,26.4110973 3.58301052,30 8.00287799,30 L140,30 L140,111.998561 C140,116.408638 143.58174,120 148.00004,120 L161.99996,120 C166.411097,120 170,116.417634 170,111.998561 L170,8.0014394 C170,3.59136164 166.41826,1.70530257e-13 161.99996,1.70530257e-13 L149.998581,1.70530257e-13 L8.00287799,1.70530257e-13 Z" id="path-1"/><filter filterUnits="objectBoundingBox" height="200%" id="filter-2" width="200%" x="-50%" y="-50%"><feOffset dx="0" dy="0" in="SourceAlpha" result="shadowOffsetOuter1"/><feGaussianBlur in="shadowOffsetOuter1" result="shadowBlurOuter1" stdDeviation="2"/><feColorMatrix in="shadowBlurOuter1" type="matrix" values="0 0 0 0 0   0 0 0 0 0   0 0 0 0 0  0 0 0 0.5 0"/></filter><path d="M159.001439,90 L140,90 L140,104.00002 L140,111.99996 C140,116.411097 143.583011,120 148.002878,120 L291.997122,120 C296.41484,120 300,116.41826 300,111.99996 L300,98.0000405 C300,93.5889027 296.416989,90 291.997122,90 L159.001439,90 L159.001439,90 Z" id="path-3"/><filter filterUnits="objectBoundingBox" height="200%" id="filter-4" width="200%" x="-50%" y="-50%"><feOffset dx="0" dy="2" in="SourceAlpha" result="shadowOffsetOuter1"/><feGaussianBlur in="shadowOffsetOuter1" result="shadowBlurOuter1" stdDeviation="2"/><feColorMatrix in="shadowBlurOuter1" type="matrix" values="0 0 0 0 0   0 0 0 0 0   0 0 0 0 0  0 0 0 0.5 0"/></filter></defs><g fill="none" fill-rule="evenodd" id="Page-1" stroke="none" stroke-width="1"><g id="linear-diagram"><path d="M200,400 C310.45695,400 400,310.45695 400,200 C400,89.54305 310.45695,0 200,0 C89.54305,0 0,89.54305 0,200 C0,310.45695 89.54305,400 200,400 Z" fill="#7705f969" id="background"/><g id="Group-2" transform="translate(200.492424, 200.492424) rotate(-45.000000) translate(-200.492424, -200.492424) translate(50.492424, 140.492424)"><g id="Combined-Shape"><use fill="black" fill-opacity="1" filter="url(#filter-2)" xlink:href="#path-1"/><use fill="#F2ECD2" fill-rule="evenodd" xlink:href="#path-1"/></g><g id="Combined-Shape"><use fill="black" fill-opacity="1" filter="url(#filter-4)" xlink:href="#path-3"/><use fill="#EE7674" fill-rule="evenodd" xlink:href="#path-3"/></g></g></g></g></svg>