<svg xmlns="http://www.w3.org/2000/svg" width="83" height="82" fill="none"><path d="M81.358 50.325l-7.092-4.948v-7.53a1.35 1.35 0 0 0-.403-.961c-.258-.255-.608-.398-.972-.398h-5.5c-.365 0-.715.143-.972.398a1.35 1.35 0 0 0-.403.961v1.767L59.93 35.37c-.232-.162-.51-.25-.793-.25s-.56.087-.793.25L40.49 47.832l-4.734-1.47v-4.735a14.97 14.97 0 0 0 6.033-5.492 14.73 14.73 0 0 0 2.219-7.805v-1.36c.92.003 1.813-.298 2.538-.856a4.06 4.06 0 0 0 1.464-2.221 4.02 4.02 0 0 0-.233-2.641c-.374-.83-1.02-1.512-1.83-1.937.077-.114.148-.233.212-.355l.138-.28c.262-.514.4-1.076.435-1.65a4.01 4.01 0 0 0-.291-1.682 4.05 4.05 0 0 0-.965-1.415 4.11 4.11 0 0 0-1.468-.897V6.09c-.004-.942-.337-1.854-.942-2.582s-1.445-1.228-2.38-1.415L31.3.228c-1.602-.304-3.247-.304-4.85 0l-9.38 1.866a4.15 4.15 0 0 0-2.376 1.416c-.604.728-.936 1.64-.94 2.58v6.945c-.55.192-1.05.497-1.47.896a4.05 4.05 0 0 0-.966 1.414 4.01 4.01 0 0 0-.292 1.682c.025.575.173 1.138.435 1.65l.137.272a3.83 3.83 0 0 0 .217.355c-.817.423-1.467 1.105-1.845 1.937a4.02 4.02 0 0 0-.238 2.65 4.06 4.06 0 0 0 1.471 2.228c.73.56 1.627.858 2.55.852v1.36a14.81 14.81 0 0 0 2.228 7.803c1.456 2.348 3.54 4.253 6.024 5.503v4.726l-11.383 3.52c-3.084.94-5.78 2.832-7.694 5.4A14.76 14.76 0 0 0 0 64.15v15.837a1.35 1.35 0 0 0 .403.961c.258.255.608.398.972.398h55.01c.365 0 .715-.143.972-.398a1.35 1.35 0 0 0 .403-.961v-4.078h13.753c.73 0 1.43-.286 1.945-.796s.806-1.2.806-1.922V54.576l2.613 1.894c.408.297.87.51 1.364.63s1.003.14 1.504.062a3.86 3.86 0 0 0 1.412-.515c.432-.262.806-.607 1.102-1.013s.507-.867.622-1.355.13-.993.046-1.487a3.76 3.76 0 0 0-.537-1.39c-.27-.424-.623-.8-1.037-1.078l.003.003zm-12.593-11.12h2.75v4.252l-2.75-1.918v-2.334zM35.84 49.24l-1.062 5.47-3.68-2.175 3.666-3.624 1.074.328zM24.755 42.7a14.87 14.87 0 0 0 8.252 0v4.1l-4.126 4.078-4.126-4.078v-4.1zM15.54 18.472a1.39 1.39 0 0 1-.86-.122 1.37 1.37 0 0 1-.614-.608l-.137-.272c-.097-.192-.147-.403-.145-.617s.054-.425.153-.615.243-.355.42-.48.38-.207.594-.24l12.058-1.832a12.48 12.48 0 0 1 3.764 0l12.057 1.832c.214.032.417.114.593.24s.32.29.42.48.153.4.154.615-.047.425-.144.617l-.138.28c-.134.262-.35.475-.616.606a1.4 1.4 0 0 1-.86.124L31.095 16.47a12.49 12.49 0 0 0-4.428 0L15.54 18.472zm28.468 5.78v-2.72c.365 0 .715.143.972.398a1.35 1.35 0 0 1 0 1.922c-.258.255-.608.398-.972.398zM41.26 6.09v6.434l-3.543-.544 1.5-7.413.93.185a1.39 1.39 0 0 1 .797.473 1.36 1.36 0 0 1 .315.865zM26.98 2.9a10.17 10.17 0 0 1 3.788 0L36.52 4.04l-1.524 7.535-3.814-.58c-1.524-.234-3.076-.234-4.6 0l-3.815.58-1.524-7.538L26.98 2.9zm-9.37 1.86l.935-.185 1.5 7.413-3.543.544V6.09a1.36 1.36 0 0 1 .315-.86 1.39 1.39 0 0 1 .792-.472zm-5.233 18.134a1.35 1.35 0 0 1 .403-.961c.258-.255.608-.398.973-.398v2.72c-.365 0-.715-.143-.973-.398a1.35 1.35 0 0 1-.403-.961zm4.126 5.438v-7.27l10.656-1.914c1.137-.205 2.302-.205 3.438 0l10.66 1.914v7.27c0 3.245-1.304 6.357-3.625 8.65s-5.47 3.583-8.752 3.583-6.43-1.29-8.752-3.583-3.625-5.406-3.625-8.65zm6.493 20.574l3.667 3.623-3.68 2.175-1.062-5.474 1.074-.323zM2.75 64.15c-.01-2.61.83-5.152 2.396-7.254s3.772-3.65 6.295-4.417l7.84-2.425 1.375 7.08a1.35 1.35 0 0 0 .273.59c.138.172.316.31.518.398a1.39 1.39 0 0 0 1.272-.078l6.163-3.658 6.168 3.658a1.39 1.39 0 0 0 1.272.078 1.37 1.37 0 0 0 .518-.398 1.35 1.35 0 0 0 .273-.59l.088-.457a3.82 3.82 0 0 0 2.13.526 3.81 3.81 0 0 0 2.066-.732l2.613-1.894V73.2c.002.475.13.942.37 1.352s.588.752 1.005.988v3.097H12.378V63.674h-2.75v14.953H2.75V64.15zm52.26 14.477h-6.876v-2.72h6.876v2.72zM52.26 73.2v-8.156h5.5V73.2h-5.5zm19.254 0H60.512v-9.516a1.35 1.35 0 0 0-.403-.961c-.258-.255-.608-.398-.973-.398h-8.252c-.365 0-.714.143-.972.398a1.35 1.35 0 0 0-.403.961V73.2h-2.75V52.582L59.137 43.6l12.378 8.972V73.2zm8.527-19.178c-.08.12-.185.223-.307.302s-.26.133-.403.158a1.09 1.09 0 0 1-.433-.011c-.142-.032-.276-.093-.394-.178L59.946 40.826c-.236-.17-.52-.264-.814-.264s-.578.092-.814.264L39.76 54.283c-.118.085-.252.146-.395.178s-.3.036-.434.01a1.09 1.09 0 0 1-.403-.159c-.122-.08-.227-.182-.308-.302-.157-.23-.217-.514-.165-.788s.21-.517.44-.677l20.63-14.396 20.64 14.394c.23.16.39.404.44.678s-.008.557-.165.79z" fill="#5f0091"/></svg>